<svg width="774" height="120" viewBox="0 0 774 120" fill="none" xmlns="http://www.w3.org/2000/svg">
<g clip-path="url(#clip0_1_4)">
<path d="M92.49 90.8L103.84 100.98C89.97 113.63 75.3 119.95 59.83 119.95C43.28 119.95 29.17 114.12 17.5 102.45C5.83 90.77 0 76.66 0 60.11C0 43.56 5.83 29.5 17.5 17.78C29.17 6.07 43.28 0.209999 59.83 0.209999C75.31 0.209999 89.98 6.53 103.84 19.18L92.49 29.51C82.04 20.23 71.15 15.6 59.83 15.6C47.57 15.6 37.09 19.95 28.38 28.64C19.67 37.33 15.31 47.83 15.31 60.13C15.31 72.43 19.67 83 28.38 91.69C37.09 100.38 47.58 104.73 59.83 104.73C71.16 104.73 82.04 100.09 92.49 90.82V90.8Z" fill="white"/>
<path d="M265.84 1.53C284.88 1.63 299.72 7.02 310.37 17.71C322.04 29.48 327.87 43.61 327.87 60.11C327.87 76.61 322.04 90.79 310.37 102.51C299.73 113.2 284.88 118.6 265.84 118.69H254.71V1.53H265.84ZM269.87 16.98V103.32C281.93 103.32 291.82 99.44 299.53 91.68C308.22 82.99 312.57 72.47 312.57 60.12C312.57 47.77 308.22 37.3 299.53 28.56C291.82 20.85 281.93 16.99 269.87 16.99V16.98Z" fill="white"/>
<path d="M409.38 1.53V16.69H361.41V52.5H409.38V67.66H361.41V103.47H409.38V118.7H346.25V1.53H409.38Z" fill="white"/>
<path d="M444.68 70.22V118.7H429.52V1.53H444.68V55.06H480.86V1.53H496.02V118.7H480.86V70.22H444.68Z" fill="#93BE3B"/>
<path d="M534.61 1.53V118.7H519.45V1.53H534.61Z" fill="#93BE3B"/>
<path d="M558.11 118.7V1.53H573.27V103.47H615.16V118.7H558.11Z" fill="#93BE3B"/>
<path d="M632.74 118.7V1.53H647.9V103.47H689.79V118.7H632.74Z" fill="#93BE3B"/>
<path d="M737.17 58.58C728.87 55.8 722.14 51.83 716.99 46.68C711.84 41.53 709.26 35.15 709.26 27.53C709.26 19.91 711.93 13.64 717.28 8.27C722.63 2.9 729.11 0.219999 736.72 0.219999C744.33 0.219999 750.68 2.88 756.05 8.2C759.08 11.13 761.62 15.79 763.67 22.19L749.9 27.61C748.24 23.12 746.73 20.19 745.36 18.82C742.97 16.48 740.09 15.3 736.72 15.3C733.35 15.3 730.4 16.48 728.01 18.85C725.62 21.22 724.42 24.11 724.42 27.53C724.42 30.95 725.62 33.85 728.01 36.24C730.69 38.88 734.41 41.29 739.14 43.49C748.32 46.47 756.1 51.16 762.5 57.55C769.68 64.63 773.26 73.22 773.26 83.33C773.26 93.44 769.68 102.07 762.53 109.22C755.38 116.37 746.77 119.95 736.72 119.95C726.67 119.95 718 116.36 710.87 109.18C705.16 103.47 701.54 95.58 700.03 85.53L714.75 80.18C715.68 88.82 717.95 94.95 721.56 98.56C725.76 102.76 730.81 104.86 736.72 104.86C742.63 104.86 747.68 102.76 751.88 98.56C756.08 94.36 758.18 89.28 758.18 83.33C758.18 77.38 756.08 72.37 751.88 68.17C747.88 64.17 742.97 60.97 737.16 58.58H737.17Z" fill="#93BE3B"/>
<path d="M156.87 101.63L173.06 86.49H232.05C236.01 78.48 238.3 69.5 238.3 59.96C238.29 26.85 211.44 0 178.32 0C160.42 0 144.4 7.89 133.41 20.32L173.05 59.96L133.41 99.6C144.4 112.04 160.42 119.92 178.32 119.92C195.24 119.92 210.49 112.89 221.39 101.62H156.86L156.87 101.63Z" fill="#377CBF"/>
<path d="M153.61 59.97L125.39 31.82C120.92 40.22 118.36 49.79 118.36 59.97C118.36 70.15 120.92 79.76 125.41 88.17L153.61 59.97Z" fill="#93BE3B"/>
</g>
<defs>
<clipPath id="clip0_1_4">
<rect width="773.27" height="119.94" fill="white"/>
</clipPath>
</defs>
</svg>
