<?xml version="1.0" encoding="UTF-8" standalone="no" ?>
<!DOCTYPE svg PUBLIC "-//W3C//DTD SVG 1.1//EN" "http://www.w3.org/Graphics/SVG/1.1/DTD/svg11.dtd">
<svg xmlns="http://www.w3.org/2000/svg" xmlns:xlink="http://www.w3.org/1999/xlink" version="1.1" width="1080" height="1080" viewBox="0 0 1080 1080" xml:space="preserve">
<desc>Created with Fabric.js 5.2.4</desc>
<defs>
</defs>
<g transform="matrix(1 0 0 1 540 540)" id="23a9467b-80ca-44f2-937d-08a6e1e47e63"  >
<rect style="stroke: none; stroke-width: 1; stroke-dasharray: none; stroke-linecap: butt; stroke-dashoffset: 0; stroke-linejoin: miter; stroke-miterlimit: 4; fill: rgb(255,255,255); fill-rule: nonzero; opacity: 1; visibility: hidden;" vector-effect="non-scaling-stroke"  x="-540" y="-540" rx="0" ry="0" width="1080" height="1080" />
</g>
<g transform="matrix(1 0 0 1 540 540)" id="df48d5dd-4e6f-4d70-bafd-f94620e4c39d"  >
</g>
<g transform="matrix(1.43 0 0 1.43 540 540)"  >
<g style=""   >
		<g transform="matrix(1 0 0 1 298.79 298.32)" clip-path="url(#CLIPPATH_3)"  >
<clipPath id="CLIPPATH_3" >
	<rect transform="matrix(1 0 0 1 -298.79 -298.32)" id="clip0_2823_4349" x="-377" y="-396" rx="0" ry="0" width="754" height="792" />
</clipPath>
<path style="stroke: none; stroke-width: 1; stroke-dasharray: none; stroke-linecap: butt; stroke-dashoffset: 0; stroke-linejoin: miter; stroke-miterlimit: 4; fill: rgb(63,61,86); fill-rule: nonzero; opacity: 1;" vector-effect="non-scaling-stroke"  transform=" translate(-675.79, -694.32)" d="M 669.589 700.141 C 669.589 700.141 670.165 687.11 681.981 688.624 Z" stroke-linecap="round" />
</g>
		<g transform="matrix(1 0 0 1 289.25 285.36)" clip-path="url(#CLIPPATH_4)"  >
<clipPath id="CLIPPATH_4" >
	<rect transform="matrix(1 0 0 1 -289.25 -285.36)" id="clip0_2823_4349" x="-377" y="-396" rx="0" ry="0" width="754" height="792" />
</clipPath>
<path style="stroke: none; stroke-width: 1; stroke-dasharray: none; stroke-linecap: butt; stroke-dashoffset: 0; stroke-linejoin: miter; stroke-miterlimit: 4; fill: rgb(108,99,255); fill-rule: nonzero; opacity: 1;" vector-effect="non-scaling-stroke"  transform=" translate(-666.25, -681.36)" d="M 666.25 687.74 C 669.516 687.74 672.164 684.883 672.164 681.359 C 672.164 677.835 669.516 674.978 666.25 674.978 C 662.984 674.978 660.337 677.835 660.337 681.359 C 660.337 684.883 662.984 687.74 666.25 687.74 Z" stroke-linecap="round" />
</g>
		<g transform="matrix(1 0 0 1 289.12 302.41)" clip-path="url(#CLIPPATH_5)"  >
<clipPath id="CLIPPATH_5" >
	<rect transform="matrix(1 0 0 1 -289.12 -302.41)" id="clip0_2823_4349" x="-377" y="-396" rx="0" ry="0" width="754" height="792" />
</clipPath>
<path style="stroke: none; stroke-width: 1; stroke-dasharray: none; stroke-linecap: butt; stroke-dashoffset: 0; stroke-linejoin: miter; stroke-miterlimit: 4; fill: rgb(63,61,86); fill-rule: nonzero; opacity: 1;" vector-effect="non-scaling-stroke"  transform=" translate(-666.12, -698.41)" d="M 666.957 692.104 L 665.288 692.104 L 665.288 704.713 L 666.957 704.713 L 666.957 692.104 Z" stroke-linecap="round" />
</g>
		<g transform="matrix(1 0 0 1 -242.94 45.22)" clip-path="url(#CLIPPATH_6)"  >
<clipPath id="CLIPPATH_6" >
	<rect transform="matrix(1 0 0 1 242.94 -45.22)" id="clip0_2823_4349" x="-377" y="-396" rx="0" ry="0" width="754" height="792" />
</clipPath>
<path style="stroke: none; stroke-width: 1; stroke-dasharray: none; stroke-linecap: butt; stroke-dashoffset: 0; stroke-linejoin: miter; stroke-miterlimit: 4; fill: rgb(229,229,229); fill-rule: nonzero; opacity: 1;" vector-effect="non-scaling-stroke"  transform=" translate(-134.06, -441.22)" d="M 268.129 317.034 C 268.129 320.225 268.033 323.389 267.841 326.527 C 266.767 344.624 262.53 362.338 255.354 378.736 C 255.298 378.876 255.233 379.006 255.178 379.136 C 254.844 379.896 254.501 380.656 254.148 381.407 C 252.014 386.044 249.647 390.553 247.056 394.911 C 235.224 414.921 219.006 431.478 199.836 443.119 C 180.666 454.759 159.134 461.126 137.142 461.655 L 138.468 543.925 L 155.758 534.101 L 158.845 540.434 L 138.598 551.938 L 141.073 704.732 L 141.101 706.773 L 127.732 709.984 L 127.76 707.934 L 131.969 461.665 C 114.268 461.391 96.7934 457.326 80.5603 449.704 C 64.3273 442.083 49.659 431.058 37.4072 417.269 C 36.5639 416.329 35.7292 415.359 34.9134 414.398 C 34.8763 414.358 34.8487 414.318 34.8206 414.288 C 24.6126 402.276 16.357 388.491 10.4016 373.514 C 10.5315 373.674 10.6704 373.824 10.8004 373.984 C -2.65911 340.022 -3.57197 301.791 8.24886 267.126 C 20.0697 232.461 43.7291 203.986 74.3789 187.537 C 74.8424 187.287 75.3155 187.047 75.779 186.797 C 106.097 171.039 140.796 168.148 172.997 178.696 C 205.197 189.244 232.55 212.462 249.633 243.747 C 250.45 245.228 251.238 246.738 251.998 248.259 C 262.609 269.372 268.155 293.015 268.129 317.034 Z" stroke-linecap="round" />
</g>
		<g transform="matrix(1 0 0 1 -132.55 -175.13)" clip-path="url(#CLIPPATH_7)"  >
<clipPath id="CLIPPATH_7" >
	<rect transform="matrix(1 0 0 1 132.55 175.13)" id="clip0_2823_4349" x="-377" y="-396" rx="0" ry="0" width="754" height="792" />
</clipPath>
<path style="stroke: none; stroke-width: 1; stroke-dasharray: none; stroke-linecap: butt; stroke-dashoffset: 0; stroke-linejoin: miter; stroke-miterlimit: 4; fill: rgb(0,0,0); fill-rule: nonzero; opacity: 0.2;" vector-effect="non-scaling-stroke"  transform=" translate(-244.45, -220.87)" d="M 120.338 62.9645 C 82.1876 159.26 123.605 270.694 212.845 311.86 C 246.703 327.479 284.253 331.226 320.191 322.574 C 356.13 313.922 388.641 293.306 413.135 263.639 C 374.989 359.937 271.719 404.634 182.475 363.472 C 93.2319 322.31 51.8095 210.877 89.9559 114.579 C 97.429 95.7141 107.69 78.2826 120.338 62.9645 Z" stroke-linecap="round" />
</g>
		<g transform="matrix(1 0 0 1 -126.38 57.71)" clip-path="url(#CLIPPATH_8)"  >
<clipPath id="CLIPPATH_8" >
	<rect transform="matrix(1 0 0 1 126.38 -57.71)" id="clip0_2823_4349" x="-377" y="-396" rx="0" ry="0" width="754" height="792" />
</clipPath>
<path style="stroke: none; stroke-width: 1; stroke-dasharray: none; stroke-linecap: butt; stroke-dashoffset: 0; stroke-linejoin: miter; stroke-miterlimit: 4; fill: rgb(63,61,86); fill-rule: nonzero; opacity: 1;" vector-effect="non-scaling-stroke"  transform=" translate(-250.62, -453.71)" d="M 259.591 717.817 L 241.642 712.385 L 241.68 710.304 L 247.057 394.911 L 247.325 379.186 L 247.335 378.726 L 248.271 323.626 L 249.634 243.757 L 249.634 243.747 L 250.561 189.608 L 251.052 189.608 L 251.998 248.259 L 253.231 324.596 L 254.112 378.766 L 254.112 379.166 L 254.149 381.397 L 254.149 381.407 L 255.855 486.994 L 256.031 497.488 L 259.554 715.716 L 259.591 717.817 Z" stroke-linecap="round" />
</g>
		<g transform="matrix(1 0 0 1 -110.99 90.52)" clip-path="url(#CLIPPATH_9)"  >
<clipPath id="CLIPPATH_9" >
	<rect transform="matrix(1 0 0 1 110.99 -90.52)" id="clip0_2823_4349" x="-377" y="-396" rx="0" ry="0" width="754" height="792" />
</clipPath>
<path style="stroke: none; stroke-width: 1; stroke-dasharray: none; stroke-linecap: butt; stroke-dashoffset: 0; stroke-linejoin: miter; stroke-miterlimit: 4; fill: rgb(63,61,86); fill-rule: nonzero; opacity: 1;" vector-effect="non-scaling-stroke"  transform=" translate(-266.01, -486.52)" d="M 278.512 474.121 L 249.465 490.622 L 253.513 498.919 L 282.56 482.418 L 278.512 474.121 Z" stroke-linecap="round" />
</g>
		<g transform="matrix(1 0 0 1 -171.79 360.99)" clip-path="url(#CLIPPATH_10)"  >
<clipPath id="CLIPPATH_10" >
	<rect transform="matrix(1 0 0 1 171.79 -360.99)" id="clip0_2823_4349" x="-377" y="-396" rx="0" ry="0" width="754" height="792" />
</clipPath>
<path style="stroke: none; stroke-width: 1; stroke-dasharray: none; stroke-linecap: butt; stroke-dashoffset: 0; stroke-linejoin: miter; stroke-miterlimit: 4; fill: rgb(203,203,203); fill-rule: nonzero; opacity: 1;" vector-effect="non-scaling-stroke"  transform=" translate(-205.21, -756.99)" d="M 246.64 755.987 L 163.785 755.987 L 163.785 757.988 L 246.64 757.988 L 246.64 755.987 Z" stroke-linecap="round" />
</g>
		<g transform="matrix(1 0 0 1 -19.75 395)" clip-path="url(#CLIPPATH_11)"  >
<clipPath id="CLIPPATH_11" >
	<rect transform="matrix(1 0 0 1 19.75 -395)" id="clip0_2823_4349" x="-377" y="-396" rx="0" ry="0" width="754" height="792" />
</clipPath>
<path style="stroke: none; stroke-width: 1; stroke-dasharray: none; stroke-linecap: butt; stroke-dashoffset: 0; stroke-linejoin: miter; stroke-miterlimit: 4; fill: rgb(203,203,203); fill-rule: nonzero; opacity: 1;" vector-effect="non-scaling-stroke"  transform=" translate(-357.25, -791)" d="M 398.68 789.999 L 315.826 789.999 L 315.826 792 L 398.68 792 L 398.68 789.999 Z" stroke-linecap="round" />
</g>
		<g transform="matrix(1 0 0 1 216.66 368.99)" clip-path="url(#CLIPPATH_12)"  >
<clipPath id="CLIPPATH_12" >
	<rect transform="matrix(1 0 0 1 -216.66 -368.99)" id="clip0_2823_4349" x="-377" y="-396" rx="0" ry="0" width="754" height="792" />
</clipPath>
<path style="stroke: none; stroke-width: 1; stroke-dasharray: none; stroke-linecap: butt; stroke-dashoffset: 0; stroke-linejoin: miter; stroke-miterlimit: 4; fill: rgb(203,203,203); fill-rule: nonzero; opacity: 1;" vector-effect="non-scaling-stroke"  transform=" translate(-593.66, -764.99)" d="M 635.085 763.99 L 552.23 763.99 L 552.23 765.991 L 635.085 765.991 L 635.085 763.99 Z" stroke-linecap="round" />
</g>
		<g transform="matrix(1 0 0 1 224.91 257.49)" clip-path="url(#CLIPPATH_13)"  >
<clipPath id="CLIPPATH_13" >
	<rect transform="matrix(1 0 0 1 -224.91 -257.49)" id="clip0_2823_4349" x="-377" y="-396" rx="0" ry="0" width="754" height="792" />
</clipPath>
<path style="stroke: none; stroke-width: 1; stroke-dasharray: none; stroke-linecap: butt; stroke-dashoffset: 0; stroke-linejoin: miter; stroke-miterlimit: 4; fill: rgb(241,241,241); fill-rule: nonzero; opacity: 1;" vector-effect="non-scaling-stroke"  transform=" translate(-601.91, -653.49)" d="M 597.241 682.584 L 597.241 624.39 C 597.241 624.39 618.259 665.647 597.241 682.584 Z" stroke-linecap="round" />
</g>
		<g transform="matrix(1 0 0 1 201.73 266.9)" clip-path="url(#CLIPPATH_14)"  >
<clipPath id="CLIPPATH_14" >
	<rect transform="matrix(1 0 0 1 -201.73 -266.9)" id="clip0_2823_4349" x="-377" y="-396" rx="0" ry="0" width="754" height="792" />
</clipPath>
<path style="stroke: none; stroke-width: 1; stroke-dasharray: none; stroke-linecap: butt; stroke-dashoffset: 0; stroke-linejoin: miter; stroke-miterlimit: 4; fill: rgb(241,241,241); fill-rule: nonzero; opacity: 1;" vector-effect="non-scaling-stroke"  transform=" translate(-578.73, -662.9)" d="M 598.539 682.574 L 558.81 643.219 C 558.81 643.219 601.19 654.414 598.539 682.574 Z" stroke-linecap="round" />
</g>
		<g transform="matrix(1 0 0 1 -185.78 271.49)" clip-path="url(#CLIPPATH_15)"  >
<clipPath id="CLIPPATH_15" >
	<rect transform="matrix(1 0 0 1 185.78 -271.49)" id="clip0_2823_4349" x="-377" y="-396" rx="0" ry="0" width="754" height="792" />
</clipPath>
<path style="stroke: none; stroke-width: 1; stroke-dasharray: none; stroke-linecap: butt; stroke-dashoffset: 0; stroke-linejoin: miter; stroke-miterlimit: 4; fill: rgb(241,241,241); fill-rule: nonzero; opacity: 1;" vector-effect="non-scaling-stroke"  transform=" translate(-191.22, -667.49)" d="M 186.546 696.589 L 186.546 638.395 C 186.546 638.395 207.564 679.652 186.546 696.589 Z" stroke-linecap="round" />
</g>
		<g transform="matrix(1 0 0 1 -208.96 280.9)" clip-path="url(#CLIPPATH_16)"  >
<clipPath id="CLIPPATH_16" >
	<rect transform="matrix(1 0 0 1 208.96 -280.9)" id="clip0_2823_4349" x="-377" y="-396" rx="0" ry="0" width="754" height="792" />
</clipPath>
<path style="stroke: none; stroke-width: 1; stroke-dasharray: none; stroke-linecap: butt; stroke-dashoffset: 0; stroke-linejoin: miter; stroke-miterlimit: 4; fill: rgb(241,241,241); fill-rule: nonzero; opacity: 1;" vector-effect="non-scaling-stroke"  transform=" translate(-168.04, -676.9)" d="M 187.844 696.579 L 148.115 657.224 C 148.115 657.224 190.495 668.419 187.844 696.579 Z" stroke-linecap="round" />
</g>
		<g transform="matrix(1 0 0 1 -41.88 306.42)" clip-path="url(#CLIPPATH_17)"  >
<clipPath id="CLIPPATH_17" >
	<rect transform="matrix(1 0 0 1 41.88 -306.42)" id="clip0_2823_4349" x="-377" y="-396" rx="0" ry="0" width="754" height="792" />
</clipPath>
<path style="stroke: none; stroke-width: 1; stroke-dasharray: none; stroke-linecap: butt; stroke-dashoffset: 0; stroke-linejoin: miter; stroke-miterlimit: 4; fill: rgb(241,241,241); fill-rule: nonzero; opacity: 1;" vector-effect="non-scaling-stroke"  transform=" translate(-335.12, -702.42)" d="M 329.316 738.605 L 329.316 666.239 C 329.316 666.239 355.452 717.543 329.316 738.605 Z" stroke-linecap="round" />
</g>
		<g transform="matrix(1 0 0 1 -70.7 318.12)" clip-path="url(#CLIPPATH_18)"  >
<clipPath id="CLIPPATH_18" >
	<rect transform="matrix(1 0 0 1 70.7 -318.12)" id="clip0_2823_4349" x="-377" y="-396" rx="0" ry="0" width="754" height="792" />
</clipPath>
<path style="stroke: none; stroke-width: 1; stroke-dasharray: none; stroke-linecap: butt; stroke-dashoffset: 0; stroke-linejoin: miter; stroke-miterlimit: 4; fill: rgb(241,241,241); fill-rule: nonzero; opacity: 1;" vector-effect="non-scaling-stroke"  transform=" translate(-306.3, -714.12)" d="M 330.93 738.592 L 281.527 689.653 C 281.527 689.653 334.227 703.574 330.93 738.592 Z" stroke-linecap="round" />
</g>
		<g transform="matrix(1 0 0 1 49.14 314.59)" clip-path="url(#CLIPPATH_19)"  >
<clipPath id="CLIPPATH_19" >
	<rect transform="matrix(1 0 0 1 -49.14 -314.59)" id="clip0_2823_4349" x="-377" y="-396" rx="0" ry="0" width="754" height="792" />
</clipPath>
<path style="stroke: none; stroke-width: 1; stroke-dasharray: none; stroke-linecap: butt; stroke-dashoffset: 0; stroke-linejoin: miter; stroke-miterlimit: 4; fill: rgb(203,203,203); fill-rule: nonzero; opacity: 1;" vector-effect="non-scaling-stroke"  transform=" translate(-426.14, -710.59)" d="M 754 729.751 L 753.491 731.682 L 597.899 683.865 L 480.689 711.745 L 330.79 739.375 L 330.586 739.315 L 259.591 717.817 L 241.642 712.385 L 186.824 695.779 L 141.101 706.773 L 127.733 709.984 L 98.6687 716.977 L 98.2701 715.026 L 127.76 707.934 L 141.073 704.732 L 186.88 693.718 L 187.103 693.779 L 241.68 710.304 L 259.554 715.716 L 330.883 737.324 L 480.327 709.784 L 597.955 681.804 L 598.187 681.864 L 754 729.751 Z" stroke-linecap="round" />
</g>
		<g transform="matrix(1 0 0 1 95.71 -275.37)" clip-path="url(#CLIPPATH_20)"  >
<clipPath id="CLIPPATH_20" >
	<rect transform="matrix(1 0 0 1 -95.71 275.37)" id="clip0_2823_4349" x="-377" y="-396" rx="0" ry="0" width="754" height="792" />
</clipPath>
<path style="stroke: none; stroke-width: 1; stroke-dasharray: none; stroke-linecap: butt; stroke-dashoffset: 0; stroke-linejoin: miter; stroke-miterlimit: 4; fill: rgb(63,61,86); fill-rule: nonzero; opacity: 1;" vector-effect="non-scaling-stroke"  transform=" translate(-472.71, -120.63)" d="M 475.638 121.48 L 487.499 111.243 C 478.284 110.146 474.498 115.569 472.949 119.861 C 465.75 116.636 457.913 120.863 457.913 120.863 L 481.646 130.16 C 480.449 126.709 478.364 123.698 475.638 121.48 Z" stroke-linecap="round" />
</g>
		<g transform="matrix(1 0 0 1 -340.02 -279.37)" clip-path="url(#CLIPPATH_21)"  >
<clipPath id="CLIPPATH_21" >
	<rect transform="matrix(1 0 0 1 340.02 279.37)" id="clip0_2823_4349" x="-377" y="-396" rx="0" ry="0" width="754" height="792" />
</clipPath>
<path style="stroke: none; stroke-width: 1; stroke-dasharray: none; stroke-linecap: butt; stroke-dashoffset: 0; stroke-linejoin: miter; stroke-miterlimit: 4; fill: rgb(63,61,86); fill-rule: nonzero; opacity: 1;" vector-effect="non-scaling-stroke"  transform=" translate(-36.98, -116.63)" d="M 39.9117 117.479 L 51.7735 107.242 C 42.5586 106.145 38.7724 111.568 37.2228 115.86 C 30.0238 112.634 22.1868 116.862 22.1868 116.862 L 45.92 126.159 C 44.7227 122.708 42.6385 119.697 39.9117 117.479 Z" stroke-linecap="round" />
</g>
		<g transform="matrix(1 0 0 1 69.75 -84.3)" clip-path="url(#CLIPPATH_22)"  >
<clipPath id="CLIPPATH_22" >
	<rect transform="matrix(1 0 0 1 -69.75 84.3)" id="clip0_2823_4349" x="-377" y="-396" rx="0" ry="0" width="754" height="792" />
</clipPath>
<path style="stroke: none; stroke-width: 1; stroke-dasharray: none; stroke-linecap: butt; stroke-dashoffset: 0; stroke-linejoin: miter; stroke-miterlimit: 4; fill: rgb(63,61,86); fill-rule: nonzero; opacity: 1;" vector-effect="non-scaling-stroke"  transform=" translate(-446.75, -311.7)" d="M 449.679 312.549 L 461.541 302.312 C 452.326 301.215 448.54 306.638 446.991 310.93 C 439.792 307.704 431.954 311.932 431.954 311.932 L 455.688 321.229 C 454.49 317.778 452.406 314.767 449.679 312.549 Z" stroke-linecap="round" />
</g>
		<g transform="matrix(1 0 0 1 5.31 339.8)" clip-path="url(#CLIPPATH_23)"  >
<clipPath id="CLIPPATH_23" >
	<rect transform="matrix(1 0 0 1 -5.31 -339.8)" id="clip0_2823_4349" x="-377" y="-396" rx="0" ry="0" width="754" height="792" />
</clipPath>
<path style="stroke: none; stroke-width: 1; stroke-dasharray: none; stroke-linecap: butt; stroke-dashoffset: 0; stroke-linejoin: miter; stroke-miterlimit: 4; fill: rgb(255,183,183); fill-rule: nonzero; opacity: 1;" vector-effect="non-scaling-stroke"  transform=" translate(-382.31, -735.8)" d="M 369.121 752.848 L 378.187 756.482 L 395.493 720.479 L 382.112 715.115 L 369.121 752.848 Z" stroke-linecap="round" />
</g>
		<g transform="matrix(1 0 0 1 1.61 364.92)" clip-path="url(#CLIPPATH_24)"  >
<clipPath id="CLIPPATH_24" >
	<rect transform="matrix(1 0 0 1 -1.61 -364.92)" id="clip0_2823_4349" x="-377" y="-396" rx="0" ry="0" width="754" height="792" />
</clipPath>
<path style="stroke: none; stroke-width: 1; stroke-dasharray: none; stroke-linecap: butt; stroke-dashoffset: 0; stroke-linejoin: miter; stroke-miterlimit: 4; fill: rgb(47,46,65); fill-rule: nonzero; opacity: 1;" vector-effect="non-scaling-stroke"  transform=" translate(-378.61, -760.92)" d="M 367.908 748.726 L 385.762 755.884 C 388.779 757.094 391.228 759.548 392.569 762.706 C 393.91 765.864 394.034 769.467 392.913 772.723 L 392.775 773.122 L 363.543 761.403 L 367.908 748.726 Z" stroke-linecap="round" />
</g>
		<g transform="matrix(1 0 0 1 88.47 346.88)" clip-path="url(#CLIPPATH_25)"  >
<clipPath id="CLIPPATH_25" >
	<rect transform="matrix(1 0 0 1 -88.47 -346.88)" id="clip0_2823_4349" x="-377" y="-396" rx="0" ry="0" width="754" height="792" />
</clipPath>
<path style="stroke: none; stroke-width: 1; stroke-dasharray: none; stroke-linecap: butt; stroke-dashoffset: 0; stroke-linejoin: miter; stroke-miterlimit: 4; fill: rgb(255,183,183); fill-rule: nonzero; opacity: 1;" vector-effect="non-scaling-stroke"  transform=" translate(-465.47, -742.88)" d="M 458.339 763.006 L 468.01 763.005 L 472.611 722.753 L 458.337 722.754 L 458.339 763.006 Z" stroke-linecap="round" />
</g>
		<g transform="matrix(1 0 0 1 95.25 370.36)" clip-path="url(#CLIPPATH_26)"  >
<clipPath id="CLIPPATH_26" >
	<rect transform="matrix(1 0 0 1 -95.25 -370.36)" id="clip0_2823_4349" x="-377" y="-396" rx="0" ry="0" width="754" height="792" />
</clipPath>
<path style="stroke: none; stroke-width: 1; stroke-dasharray: none; stroke-linecap: butt; stroke-dashoffset: 0; stroke-linejoin: miter; stroke-miterlimit: 4; fill: rgb(47,46,65); fill-rule: nonzero; opacity: 1;" vector-effect="non-scaling-stroke"  transform=" translate(-472.25, -766.36)" d="M 456.661 759.599 L 475.707 759.598 C 478.926 759.598 482.014 760.978 484.29 763.434 C 486.567 765.891 487.846 769.222 487.846 772.695 L 487.846 773.121 L 456.661 773.122 L 456.661 759.599 Z" stroke-linecap="round" />
</g>
		<g transform="matrix(1 0 0 1 43.17 214.46)" clip-path="url(#CLIPPATH_27)"  >
<clipPath id="CLIPPATH_27" >
	<rect transform="matrix(1 0 0 1 -43.17 -214.46)" id="clip0_2823_4349" x="-377" y="-396" rx="0" ry="0" width="754" height="792" />
</clipPath>
<path style="stroke: none; stroke-width: 1; stroke-dasharray: none; stroke-linecap: butt; stroke-dashoffset: 0; stroke-linejoin: miter; stroke-miterlimit: 4; fill: rgb(47,46,65); fill-rule: nonzero; opacity: 1;" vector-effect="non-scaling-stroke"  transform=" translate(-420.17, -610.46)" d="M 414.06 483.837 L 417.216 477.027 L 444.037 491.498 L 443.248 497.457 L 448.376 504.692 C 448.376 504.692 457.054 509.799 455.476 526.824 L 453.898 542.997 L 451.926 563.852 L 465.731 615.351 L 472.831 683.45 L 477.959 738.354 L 453.109 737.077 L 430.232 647.698 L 390 743.887 L 362.389 736.226 L 400.255 640.888 L 404.988 600.881 C 404.988 600.881 401.833 579.6 416.821 565.129 L 414.455 557.468 L 414.455 548.028 L 406.566 502.99 L 414.06 483.837 Z" stroke-linecap="round" />
</g>
		<g transform="matrix(1 0 0 1 44.55 218.5)" clip-path="url(#CLIPPATH_28)"  >
<clipPath id="CLIPPATH_28" >
	<rect transform="matrix(1 0 0 1 -44.55 -218.5)" id="clip0_2823_4349" x="-377" y="-396" rx="0" ry="0" width="754" height="792" />
</clipPath>
<path style="stroke: none; stroke-width: 1; stroke-dasharray: none; stroke-linecap: butt; stroke-dashoffset: 0; stroke-linejoin: miter; stroke-miterlimit: 4; fill: rgb(0,0,0); fill-rule: nonzero; opacity: 0.2;" vector-effect="non-scaling-stroke"  transform=" translate(-421.55, -614.5)" d="M 413.323 581.167 L 412.431 581.438 L 429.786 647.834 L 430.678 647.562 L 413.323 581.167 Z" stroke-linecap="round" />
</g>
		<g transform="matrix(1 0 0 1 57.18 169.98)" clip-path="url(#CLIPPATH_29)"  >
<clipPath id="CLIPPATH_29" >
	<rect transform="matrix(1 0 0 1 -57.18 -169.98)" id="clip0_2823_4349" x="-377" y="-396" rx="0" ry="0" width="754" height="792" />
</clipPath>
<path style="stroke: none; stroke-width: 1; stroke-dasharray: none; stroke-linecap: butt; stroke-dashoffset: 0; stroke-linejoin: miter; stroke-miterlimit: 4; fill: rgb(63,61,86); fill-rule: nonzero; opacity: 1;" vector-effect="non-scaling-stroke"  transform=" translate(-434.18, -565.98)" d="M 414.849 568.108 L 453.504 568.108 L 453.504 563.852 L 414.849 563.852 L 414.849 568.108 Z" stroke-linecap="round" />
</g>
		<g transform="matrix(1 0 0 1 76.5 170.41)" clip-path="url(#CLIPPATH_30)"  >
<clipPath id="CLIPPATH_30" >
	<rect transform="matrix(1 0 0 1 -76.5 -170.41)" id="clip0_2823_4349" x="-377" y="-396" rx="0" ry="0" width="754" height="792" />
</clipPath>
<path style="stroke: none; stroke-width: 1; stroke-dasharray: none; stroke-linecap: butt; stroke-dashoffset: 0; stroke-linejoin: miter; stroke-miterlimit: 4; fill: rgb(63,61,86); fill-rule: nonzero; opacity: 1;" vector-effect="non-scaling-stroke"  transform=" translate(-453.5, -566.41)" d="M 453.504 570.662 C 454.375 570.662 455.081 568.756 455.081 566.406 C 455.081 564.055 454.375 562.15 453.504 562.15 C 452.632 562.15 451.926 564.055 451.926 566.406 C 451.926 568.756 452.632 570.662 453.504 570.662 Z" stroke-linecap="round" />
</g>
		<g transform="matrix(1 0 0 1 59.07 56.92)" clip-path="url(#CLIPPATH_31)"  >
<clipPath id="CLIPPATH_31" >
	<rect transform="matrix(1 0 0 1 -59.07 -56.92)" id="clip0_2823_4349" x="-377" y="-396" rx="0" ry="0" width="754" height="792" />
</clipPath>
<path style="stroke: none; stroke-width: 1; stroke-dasharray: none; stroke-linecap: butt; stroke-dashoffset: 0; stroke-linejoin: miter; stroke-miterlimit: 4; fill: rgb(255,183,183); fill-rule: nonzero; opacity: 1;" vector-effect="non-scaling-stroke"  transform=" translate(-436.07, -452.92)" d="M 454.523 463.802 C 460.093 452.807 456.348 439.02 446.158 433.009 C 435.968 426.999 423.192 431.04 417.621 442.035 C 412.051 453.031 415.796 466.817 425.986 472.828 C 436.176 478.839 448.952 474.798 454.523 463.802 Z" stroke-linecap="round" />
</g>
		<g transform="matrix(1 0 0 1 26.89 28.75)" clip-path="url(#CLIPPATH_32)"  >
<clipPath id="CLIPPATH_32" >
	<rect transform="matrix(1 0 0 1 -26.89 -28.75)" id="clip0_2823_4349" x="-377" y="-396" rx="0" ry="0" width="754" height="792" />
</clipPath>
<path style="stroke: none; stroke-width: 1; stroke-dasharray: none; stroke-linecap: butt; stroke-dashoffset: 0; stroke-linejoin: miter; stroke-miterlimit: 4; fill: rgb(47,46,65); fill-rule: nonzero; opacity: 1;" vector-effect="non-scaling-stroke"  transform=" translate(-403.89, -424.75)" d="M 403.895 444.819 C 414.168 444.819 422.497 435.832 422.497 424.746 C 422.497 413.66 414.168 404.673 403.895 404.673 C 393.621 404.673 385.292 413.66 385.292 424.746 C 385.292 435.832 393.621 444.819 403.895 444.819 Z" stroke-linecap="round" />
</g>
		<g transform="matrix(1 0 0 1 21.05 39.5)" clip-path="url(#CLIPPATH_33)"  >
<clipPath id="CLIPPATH_33" >
	<rect transform="matrix(1 0 0 1 -21.05 -39.5)" id="clip0_2823_4349" x="-377" y="-396" rx="0" ry="0" width="754" height="792" />
</clipPath>
<path style="stroke: none; stroke-width: 1; stroke-dasharray: none; stroke-linecap: butt; stroke-dashoffset: 0; stroke-linejoin: miter; stroke-miterlimit: 4; fill: rgb(47,46,65); fill-rule: nonzero; opacity: 1;" vector-effect="non-scaling-stroke"  transform=" translate(-398.05, -435.5)" d="M 380.288 422.596 C 379.554 425.255 379.339 428.05 379.657 430.804 C 379.975 433.558 380.818 436.21 382.134 438.594 C 383.45 440.979 385.21 443.042 387.302 444.656 C 389.394 446.269 391.774 447.397 394.291 447.968 C 396.807 448.539 399.406 448.54 401.924 447.973 C 404.441 447.405 406.822 446.28 408.916 444.67 C 411.01 443.059 412.772 440.997 414.091 438.615 C 415.409 436.232 416.255 433.581 416.576 430.827 C 415.243 435.656 412.276 439.768 408.264 442.346 C 404.252 444.923 399.489 445.779 394.919 444.742 C 390.35 443.706 386.308 440.853 383.598 436.75 C 380.887 432.648 379.706 427.595 380.288 422.596 Z" stroke-linecap="round" />
</g>
		<g transform="matrix(1 0 0 1 58.6 53.3)" clip-path="url(#CLIPPATH_34)"  >
<clipPath id="CLIPPATH_34" >
	<rect transform="matrix(1 0 0 1 -58.6 -53.3)" id="clip0_2823_4349" x="-377" y="-396" rx="0" ry="0" width="754" height="792" />
</clipPath>
<path style="stroke: none; stroke-width: 1; stroke-dasharray: none; stroke-linecap: butt; stroke-dashoffset: 0; stroke-linejoin: miter; stroke-miterlimit: 4; fill: rgb(47,46,65); fill-rule: nonzero; opacity: 1;" vector-effect="non-scaling-stroke"  transform=" translate(-435.6, -449.3)" d="M 453.779 446.619 C 454.325 451.808 453.269 457.046 450.776 461.522 C 448.284 465.998 444.492 469.461 439.99 471.376 C 435.488 473.291 430.526 473.55 425.873 472.113 C 421.221 470.676 417.137 467.624 414.255 463.429 C 411.374 459.233 409.854 454.13 409.934 448.909 C 410.013 443.687 411.685 438.64 414.693 434.549 C 417.7 430.457 421.874 427.551 426.567 426.279 C 431.261 425.006 436.212 425.44 440.654 427.513 C 444.328 424.316 448.882 425.307 452.585 428.681 C 456.772 432.496 458.015 435.116 461.263 441.39 C 458.069 441.874 456.972 446.135 453.779 446.619 Z" stroke-linecap="round" />
</g>
		<g transform="matrix(1 0 0 1 20.19 129.04)" clip-path="url(#CLIPPATH_35)"  >
<clipPath id="CLIPPATH_35" >
	<rect transform="matrix(1 0 0 1 -20.19 -129.04)" id="clip0_2823_4349" x="-377" y="-396" rx="0" ry="0" width="754" height="792" />
</clipPath>
<path style="stroke: none; stroke-width: 1; stroke-dasharray: none; stroke-linecap: butt; stroke-dashoffset: 0; stroke-linejoin: miter; stroke-miterlimit: 4; fill: rgb(108,99,255); fill-rule: nonzero; opacity: 1;" vector-effect="non-scaling-stroke"  transform=" translate(-397.19, -525.04)" d="M 376.485 514.855 C 376.72 521.579 377.186 534.815 377.186 535.49 C 377.186 536.202 386.486 556.978 390.503 565.92 L 390.503 565.924 C 390.789 566.554 391.045 567.126 391.272 567.629 C 391.582 568.323 392.071 568.906 392.68 569.31 C 393.288 569.713 393.991 569.92 394.705 569.905 L 412.261 569.565 C 413.226 569.547 414.148 569.128 414.833 568.395 C 415.518 567.661 415.914 566.671 415.938 565.629 L 417.896 482.285 C 417.903 482.01 417.858 481.737 417.765 481.481 C 417.672 481.225 417.533 480.991 417.355 480.795 C 417.177 480.598 416.965 480.441 416.73 480.334 C 416.496 480.227 416.243 480.172 415.989 480.172 L 393.348 480.172 C 392.391 480.172 391.454 480.464 390.644 481.012 C 389.834 481.561 389.184 482.344 388.767 483.273 L 377.901 507.532 C 376.882 509.811 376.396 512.326 376.485 514.855 Z" stroke-linecap="round" />
</g>
		<g transform="matrix(1 0 0 1 51.56 125.94)" clip-path="url(#CLIPPATH_36)"  >
<clipPath id="CLIPPATH_36" >
	<rect transform="matrix(1 0 0 1 -51.56 -125.94)" id="clip0_2823_4349" x="-377" y="-396" rx="0" ry="0" width="754" height="792" />
</clipPath>
<path style="stroke: none; stroke-width: 1; stroke-dasharray: none; stroke-linecap: butt; stroke-dashoffset: 0; stroke-linejoin: miter; stroke-miterlimit: 4; fill: rgb(108,99,255); fill-rule: nonzero; opacity: 1;" vector-effect="non-scaling-stroke"  transform=" translate(-428.56, -521.94)" d="M 416.244 559.91 C 420.749 556.964 424.797 553.273 428.24 548.971 C 436.239 539.263 441.104 527.016 442.104 514.07 C 442.997 502.994 440.96 494.761 436.051 489.599 C 429.81 483.037 421.315 483.991 420.957 484.035 L 420.576 484.081 L 414.821 489.336 L 416.45 491.413 L 421.599 486.711 C 423.176 486.626 429.611 486.607 434.311 491.569 C 438.638 496.136 440.415 503.627 439.593 513.835 C 438.641 526.161 434.02 537.824 426.421 547.083 C 423.142 551.175 419.299 554.698 415.027 557.528 L 416.244 559.91 Z" stroke-linecap="round" />
</g>
		<g transform="matrix(1 0 0 1 21.83 136.09)" clip-path="url(#CLIPPATH_37)"  >
<clipPath id="CLIPPATH_37" >
	<rect transform="matrix(1 0 0 1 -21.83 -136.09)" id="clip0_2823_4349" x="-377" y="-396" rx="0" ry="0" width="754" height="792" />
</clipPath>
<path style="stroke: none; stroke-width: 1; stroke-dasharray: none; stroke-linecap: butt; stroke-dashoffset: 0; stroke-linejoin: miter; stroke-miterlimit: 4; fill: rgb(63,61,86); fill-rule: nonzero; opacity: 1;" vector-effect="non-scaling-stroke"  transform=" translate(-398.83, -532.09)" d="M 383.574 528.246 L 383.405 529.134 L 414.081 535.933 L 414.25 535.044 L 383.574 528.246 Z" stroke-linecap="round" />
</g>
		<g transform="matrix(1 0 0 1 26.22 110.51)" clip-path="url(#CLIPPATH_38)"  >
<clipPath id="CLIPPATH_38" >
	<rect transform="matrix(1 0 0 1 -26.22 -110.51)" id="clip0_2823_4349" x="-377" y="-396" rx="0" ry="0" width="754" height="792" />
</clipPath>
<path style="stroke: none; stroke-width: 1; stroke-dasharray: none; stroke-linecap: butt; stroke-dashoffset: 0; stroke-linejoin: miter; stroke-miterlimit: 4; fill: rgb(63,61,86); fill-rule: nonzero; opacity: 1;" vector-effect="non-scaling-stroke"  transform=" translate(-403.22, -506.51)" d="M 403.792 480.154 L 401.8 532.823 L 402.64 532.86 L 404.632 480.191 L 403.792 480.154 Z" stroke-linecap="round" />
</g>
		<g transform="matrix(1 0 0 1 6.49 142.47)" clip-path="url(#CLIPPATH_39)"  >
<clipPath id="CLIPPATH_39" >
	<rect transform="matrix(1 0 0 1 -6.49 -142.47)" id="clip0_2823_4349" x="-377" y="-396" rx="0" ry="0" width="754" height="792" />
</clipPath>
<path style="stroke: none; stroke-width: 1; stroke-dasharray: none; stroke-linecap: butt; stroke-dashoffset: 0; stroke-linejoin: miter; stroke-miterlimit: 4; fill: rgb(63,61,86); fill-rule: nonzero; opacity: 1;" vector-effect="non-scaling-stroke"  transform=" translate(-383.49, -538.47)" d="M 376.485 514.855 C 376.72 521.579 377.186 534.815 377.186 535.49 C 377.186 536.202 386.486 556.978 390.503 565.92 L 383.015 519.004 C 382.725 517.199 381.996 515.509 380.903 514.107 C 379.809 512.706 378.39 511.643 376.791 511.028 C 376.54 512.284 376.437 513.57 376.485 514.855 Z" stroke-linecap="round" />
</g>
		<g transform="matrix(1 0 0 1 51.39 201.84)" clip-path="url(#CLIPPATH_40)"  >
<clipPath id="CLIPPATH_40" >
	<rect transform="matrix(1 0 0 1 -51.39 -201.84)" id="clip0_2823_4349" x="-377" y="-396" rx="0" ry="0" width="754" height="792" />
</clipPath>
<path style="stroke: none; stroke-width: 1; stroke-dasharray: none; stroke-linecap: butt; stroke-dashoffset: 0; stroke-linejoin: miter; stroke-miterlimit: 4; fill: rgb(255,183,183); fill-rule: nonzero; opacity: 1;" vector-effect="non-scaling-stroke"  transform=" translate(-428.39, -597.84)" d="M 422.491 613.178 C 421.828 612.256 421.361 611.189 421.122 610.051 C 420.882 608.913 420.877 607.732 421.107 606.592 C 421.336 605.451 421.794 604.379 422.449 603.451 C 423.104 602.522 423.94 601.76 424.897 601.217 L 423.375 583.051 L 433.381 579.361 L 435.196 605.047 C 435.934 606.844 436.035 608.869 435.481 610.741 C 434.927 612.612 433.756 614.2 432.191 615.202 C 430.625 616.204 428.772 616.552 426.985 616.179 C 425.197 615.806 423.598 614.738 422.491 613.178 Z" stroke-linecap="round" />
</g>
		<g transform="matrix(1 0 0 1 50.41 146.91)" clip-path="url(#CLIPPATH_41)"  >
<clipPath id="CLIPPATH_41" >
	<rect transform="matrix(1 0 0 1 -50.41 -146.91)" id="clip0_2823_4349" x="-377" y="-396" rx="0" ry="0" width="754" height="792" />
</clipPath>
<path style="stroke: none; stroke-width: 1; stroke-dasharray: none; stroke-linecap: butt; stroke-dashoffset: 0; stroke-linejoin: miter; stroke-miterlimit: 4; fill: rgb(203,203,203); fill-rule: nonzero; opacity: 1;" vector-effect="non-scaling-stroke"  transform=" translate(-427.41, -542.91)" d="M 415.943 503.539 C 415.748 500.78 416.409 498.03 417.823 495.722 C 419.236 493.414 421.322 491.679 423.751 490.792 C 425.892 490.029 428.204 490.031 430.344 490.798 C 432.635 491.64 434.622 493.238 436.025 495.365 C 437.428 497.492 438.176 500.041 438.163 502.651 L 438.913 594.907 L 421.184 595.6 L 415.943 503.539 Z" stroke-linecap="round" />
</g>
</g>
</g>
</svg>