<?xml version="1.0" encoding="UTF-8" standalone="no" ?>
<!DOCTYPE svg PUBLIC "-//W3C//DTD SVG 1.1//EN" "http://www.w3.org/Graphics/SVG/1.1/DTD/svg11.dtd">
<svg xmlns="http://www.w3.org/2000/svg" xmlns:xlink="http://www.w3.org/1999/xlink" version="1.1" width="1080" height="1080" viewBox="0 0 1080 1080" xml:space="preserve">
<desc>Created with Fabric.js 5.2.4</desc>
<defs>
</defs>
<g transform="matrix(1 0 0 1 540 540)" id="6ac5e378-c02f-42bf-bb29-ad7b0d2f7f4c"  >
<rect style="stroke: none; stroke-width: 1; stroke-dasharray: none; stroke-linecap: butt; stroke-dashoffset: 0; stroke-linejoin: miter; stroke-miterlimit: 4; fill: rgb(255,255,255); fill-rule: nonzero; opacity: 1; visibility: hidden;" vector-effect="non-scaling-stroke"  x="-540" y="-540" rx="0" ry="0" width="1080" height="1080" />
</g>
<g transform="matrix(1 0 0 1 540 540)" id="d890f2dd-6b00-4c2e-ae66-0cec87fd8dca"  >
</g>
<g transform="matrix(1.98 0 0 1.38 540 425.28)"  >
<g style=""   >
		<g transform="matrix(1 0 0 1 0 -0.5)"  >
<rect style="stroke: none; stroke-width: 1; stroke-dasharray: none; stroke-linecap: butt; stroke-dashoffset: 0; stroke-linejoin: miter; stroke-miterlimit: 4; fill: rgb(248,250,252); fill-rule: nonzero; opacity: 1;" vector-effect="non-scaling-stroke"  x="-390.5" y="-642.5" rx="0" ry="0" width="781" height="1285" />
</g>
		<g transform="matrix(1 0 0 1 156 389.58)"  >
<path style="stroke: none; stroke-width: 1; stroke-dasharray: none; stroke-linecap: butt; stroke-dashoffset: 0; stroke-linejoin: miter; stroke-miterlimit: 4; fill: rgb(63,61,86); fill-opacity: 0.46; fill-rule: nonzero; opacity: 1;" vector-effect="non-scaling-stroke"  transform=" translate(-546.5, -1031.58)" d="M 600 1066.14 L 493.398 1066.14 C 493.265 1066.14 493.132 1066.13 493 1066.11 L 543.418 998.417 C 543.725 997.996 544.172 997.645 544.712 997.401 C 545.252 997.157 545.865 997.028 546.49 997.028 C 547.115 997.028 547.729 997.157 548.269 997.401 C 548.808 997.645 549.255 997.996 549.563 998.417 L 583.399 1043.85 L 585.02 1046.02 L 600 1066.14 Z" stroke-linecap="round" />
</g>
		<g transform="matrix(1 0 0 1 -63.28 390.31)"  >
<path style="stroke: none; stroke-width: 1; stroke-dasharray: none; stroke-linecap: butt; stroke-dashoffset: 0; stroke-linejoin: miter; stroke-miterlimit: 4; fill: rgb(71,85,105); fill-rule: nonzero; opacity: 0.2;" vector-effect="non-scaling-stroke"  transform=" translate(-327.22, -1032.31)" d="M 362.809 1064.14 L 291.632 1064.14 L 326.572 1006.67 L 329.087 1002.54 L 330.345 1000.47 L 333.515 1006.67 L 362.809 1064.14 Z" stroke-linecap="round" />
</g>
		<g transform="matrix(1 0 0 1 299.5 371.15)"  >
<path style="stroke: none; stroke-width: 1; stroke-dasharray: none; stroke-linecap: butt; stroke-dashoffset: 0; stroke-linejoin: miter; stroke-miterlimit: 4; fill: rgb(71,85,105); fill-opacity: 0.4; fill-rule: nonzero; opacity: 1;" vector-effect="non-scaling-stroke"  transform=" translate(-690, -1013.15)" d="M 760 1042.44 L 620 1042.44 L 647.129 1018.47 L 649.082 1016.74 L 684.433 985.503 C 686.751 983.455 692.327 983.328 695.052 985.116 C 695.235 985.239 695.405 985.368 695.561 985.503 L 760 1042.44 Z" stroke-linecap="round" />
</g>
		<g transform="matrix(1 0 0 1 141.31 375.83)"  >
<path style="stroke: none; stroke-width: 1; stroke-dasharray: none; stroke-linecap: butt; stroke-dashoffset: 0; stroke-linejoin: miter; stroke-miterlimit: 4; fill: rgb(108,99,255); fill-rule: nonzero; opacity: 1;" vector-effect="non-scaling-stroke"  transform=" translate(-531.81, -1017.83)" d="M 531.812 1032.33 C 538.884 1032.33 544.617 1025.84 544.617 1017.83 C 544.617 1009.82 538.884 1003.33 531.812 1003.33 C 524.74 1003.33 519.006 1009.82 519.006 1017.83 C 519.006 1025.84 524.74 1032.33 531.812 1032.33 Z" stroke-linecap="round" />
</g>
		<g transform="matrix(1 0 0 1 141.24 396.58)"  >
<path style="stroke: none; stroke-width: 1; stroke-dasharray: none; stroke-linecap: butt; stroke-dashoffset: 0; stroke-linejoin: miter; stroke-miterlimit: 4; fill: rgb(63,61,86); fill-rule: nonzero; opacity: 1;" vector-effect="non-scaling-stroke"  transform=" translate(-531.74, -1038.58)" d="M 533.046 1061.5 L 530.424 1061.5 L 531.619 1015.65 L 533.046 1061.5 Z" stroke-linecap="round" />
</g>
		<g transform="matrix(1 0 0 1 142.58 380.67)"  >
<path style="stroke: none; stroke-width: 1; stroke-dasharray: none; stroke-linecap: butt; stroke-dashoffset: 0; stroke-linejoin: miter; stroke-miterlimit: 4; fill: rgb(63,61,86); fill-rule: nonzero; opacity: 1;" vector-effect="non-scaling-stroke"  transform=" translate(-533.08, -1022.67)" d="M 531.85 1024.34 L 534.666 1019.92 L 531.812 1025.43 L 531.503 1024.82 L 531.85 1024.34 Z" stroke-linecap="round" />
</g>
		<g transform="matrix(1 0 0 1 139.81 385.13)"  >
<path style="stroke: none; stroke-width: 1; stroke-dasharray: none; stroke-linecap: butt; stroke-dashoffset: 0; stroke-linejoin: miter; stroke-miterlimit: 4; fill: rgb(63,61,86); fill-rule: nonzero; opacity: 1;" vector-effect="non-scaling-stroke"  transform=" translate(-530.31, -1027.13)" d="M 531.542 1028.79 L 528.726 1024.38 L 531.581 1029.88 L 531.889 1029.27 L 531.542 1028.79 Z" stroke-linecap="round" />
</g>
		<g transform="matrix(1 0 0 1 258.78 375.83)"  >
<path style="stroke: none; stroke-width: 1; stroke-dasharray: none; stroke-linecap: butt; stroke-dashoffset: 0; stroke-linejoin: miter; stroke-miterlimit: 4; fill: rgb(108,99,255); fill-rule: nonzero; opacity: 1;" vector-effect="non-scaling-stroke"  transform=" translate(-649.28, -1017.83)" d="M 649.277 1032.33 C 656.349 1032.33 662.082 1025.84 662.082 1017.83 C 662.082 1009.82 656.349 1003.33 649.277 1003.33 C 642.204 1003.33 636.471 1009.82 636.471 1017.83 C 636.471 1025.84 642.204 1032.33 649.277 1032.33 Z" stroke-linecap="round" />
</g>
		<g transform="matrix(1 0 0 1 258.7 396.58)"  >
<path style="stroke: none; stroke-width: 1; stroke-dasharray: none; stroke-linecap: butt; stroke-dashoffset: 0; stroke-linejoin: miter; stroke-miterlimit: 4; fill: rgb(63,61,86); fill-rule: nonzero; opacity: 1;" vector-effect="non-scaling-stroke"  transform=" translate(-649.2, -1038.58)" d="M 650.51 1061.5 L 647.888 1061.5 L 649.084 1015.65 L 650.51 1061.5 Z" stroke-linecap="round" />
</g>
		<g transform="matrix(1 0 0 1 260.05 380.67)"  >
<path style="stroke: none; stroke-width: 1; stroke-dasharray: none; stroke-linecap: butt; stroke-dashoffset: 0; stroke-linejoin: miter; stroke-miterlimit: 4; fill: rgb(63,61,86); fill-rule: nonzero; opacity: 1;" vector-effect="non-scaling-stroke"  transform=" translate(-650.55, -1022.67)" d="M 649.315 1024.34 L 652.131 1019.92 L 649.277 1025.43 L 648.968 1024.82 L 649.315 1024.34 Z" stroke-linecap="round" />
</g>
		<g transform="matrix(1 0 0 1 257.27 385.13)"  >
<path style="stroke: none; stroke-width: 1; stroke-dasharray: none; stroke-linecap: butt; stroke-dashoffset: 0; stroke-linejoin: miter; stroke-miterlimit: 4; fill: rgb(63,61,86); fill-rule: nonzero; opacity: 1;" vector-effect="non-scaling-stroke"  transform=" translate(-647.77, -1027.13)" d="M 649.007 1028.79 L 646.191 1024.38 L 649.045 1029.88 L 649.354 1029.27 L 649.007 1028.79 Z" stroke-linecap="round" />
</g>
		<g transform="matrix(1 0 0 1 178.41 355)"  >
<path style="stroke: none; stroke-width: 1; stroke-dasharray: none; stroke-linecap: butt; stroke-dashoffset: 0; stroke-linejoin: miter; stroke-miterlimit: 4; fill: rgb(108,99,255); fill-rule: nonzero; opacity: 1;" vector-effect="non-scaling-stroke"  transform=" translate(-568.91, -997)" d="M 568.907 1018.41 C 579.352 1018.41 587.819 1008.83 587.819 997.001 C 587.819 985.174 579.352 975.587 568.907 975.587 C 558.462 975.587 549.994 985.174 549.994 997.001 C 549.994 1008.83 558.462 1018.41 568.907 1018.41 Z" stroke-linecap="round" />
</g>
		<g transform="matrix(1 0 0 1 178.29 385.64)"  >
<path style="stroke: none; stroke-width: 1; stroke-dasharray: none; stroke-linecap: butt; stroke-dashoffset: 0; stroke-linejoin: miter; stroke-miterlimit: 4; fill: rgb(63,61,86); fill-rule: nonzero; opacity: 1;" vector-effect="non-scaling-stroke"  transform=" translate(-568.79, -1027.64)" d="M 570.729 1061.5 L 566.856 1061.5 L 568.621 993.776 L 570.729 1061.5 Z" stroke-linecap="round" />
</g>
		<g transform="matrix(1 0 0 1 180.29 362.16)"  >
<path style="stroke: none; stroke-width: 1; stroke-dasharray: none; stroke-linecap: butt; stroke-dashoffset: 0; stroke-linejoin: miter; stroke-miterlimit: 4; fill: rgb(63,61,86); fill-rule: nonzero; opacity: 1;" vector-effect="non-scaling-stroke"  transform=" translate(-570.79, -1004.16)" d="M 568.964 1006.61 L 573.122 1000.1 L 568.907 1008.22 L 568.451 1007.32 L 568.964 1006.61 Z" stroke-linecap="round" />
</g>
		<g transform="matrix(1 0 0 1 176.18 368.74)"  >
<path style="stroke: none; stroke-width: 1; stroke-dasharray: none; stroke-linecap: butt; stroke-dashoffset: 0; stroke-linejoin: miter; stroke-miterlimit: 4; fill: rgb(63,61,86); fill-rule: nonzero; opacity: 1;" vector-effect="non-scaling-stroke"  transform=" translate(-566.68, -1010.74)" d="M 568.508 1013.19 L 564.349 1006.68 L 568.565 1014.8 L 569.021 1013.9 L 568.508 1013.19 Z" stroke-linecap="round" />
</g>
		<g transform="matrix(1 0 0 1 224.53 355)"  >
<path style="stroke: none; stroke-width: 1; stroke-dasharray: none; stroke-linecap: butt; stroke-dashoffset: 0; stroke-linejoin: miter; stroke-miterlimit: 4; fill: rgb(108,99,255); fill-rule: nonzero; opacity: 1;" vector-effect="non-scaling-stroke"  transform=" translate(-615.03, -997)" d="M 615.028 1018.41 C 625.473 1018.41 633.94 1008.83 633.94 997.001 C 633.94 985.174 625.473 975.587 615.028 975.587 C 604.583 975.587 596.115 985.174 596.115 997.001 C 596.115 1008.83 604.583 1018.41 615.028 1018.41 Z" stroke-linecap="round" />
</g>
		<g transform="matrix(1 0 0 1 224.41 385.64)"  >
<path style="stroke: none; stroke-width: 1; stroke-dasharray: none; stroke-linecap: butt; stroke-dashoffset: 0; stroke-linejoin: miter; stroke-miterlimit: 4; fill: rgb(63,61,86); fill-rule: nonzero; opacity: 1;" vector-effect="non-scaling-stroke"  transform=" translate(-614.91, -1027.64)" d="M 616.851 1061.5 L 612.977 1061.5 L 614.743 993.776 L 616.851 1061.5 Z" stroke-linecap="round" />
</g>
		<g transform="matrix(1 0 0 1 226.41 362.16)"  >
<path style="stroke: none; stroke-width: 1; stroke-dasharray: none; stroke-linecap: butt; stroke-dashoffset: 0; stroke-linejoin: miter; stroke-miterlimit: 4; fill: rgb(63,61,86); fill-rule: nonzero; opacity: 1;" vector-effect="non-scaling-stroke"  transform=" translate(-616.91, -1004.16)" d="M 615.084 1006.61 L 619.243 1000.1 L 615.027 1008.22 L 614.572 1007.32 L 615.084 1006.61 Z" stroke-linecap="round" />
</g>
		<g transform="matrix(1 0 0 1 222.31 368.74)"  >
<path style="stroke: none; stroke-width: 1; stroke-dasharray: none; stroke-linecap: butt; stroke-dashoffset: 0; stroke-linejoin: miter; stroke-miterlimit: 4; fill: rgb(63,61,86); fill-rule: nonzero; opacity: 1;" vector-effect="non-scaling-stroke"  transform=" translate(-612.81, -1010.74)" d="M 614.629 1013.19 L 610.47 1006.68 L 614.686 1014.8 L 615.141 1013.9 L 614.629 1013.19 Z" stroke-linecap="round" />
</g>
		<g transform="matrix(1 0 0 1 104.9 355)"  >
<path style="stroke: none; stroke-width: 1; stroke-dasharray: none; stroke-linecap: butt; stroke-dashoffset: 0; stroke-linejoin: miter; stroke-miterlimit: 4; fill: rgb(108,99,255); fill-rule: nonzero; opacity: 1;" vector-effect="non-scaling-stroke"  transform=" translate(-495.4, -997)" d="M 495.401 1018.41 C 505.846 1018.41 514.313 1008.83 514.313 997.001 C 514.313 985.174 505.846 975.587 495.401 975.587 C 484.956 975.587 476.489 985.174 476.489 997.001 C 476.489 1008.83 484.956 1018.41 495.401 1018.41 Z" stroke-linecap="round" />
</g>
		<g transform="matrix(1 0 0 1 104.79 385.64)"  >
<path style="stroke: none; stroke-width: 1; stroke-dasharray: none; stroke-linecap: butt; stroke-dashoffset: 0; stroke-linejoin: miter; stroke-miterlimit: 4; fill: rgb(63,61,86); fill-rule: nonzero; opacity: 1;" vector-effect="non-scaling-stroke"  transform=" translate(-495.29, -1027.64)" d="M 497.223 1061.5 L 493.35 1061.5 L 495.116 993.776 L 497.223 1061.5 Z" stroke-linecap="round" />
</g>
		<g transform="matrix(1 0 0 1 106.78 362.16)"  >
<path style="stroke: none; stroke-width: 1; stroke-dasharray: none; stroke-linecap: butt; stroke-dashoffset: 0; stroke-linejoin: miter; stroke-miterlimit: 4; fill: rgb(63,61,86); fill-rule: nonzero; opacity: 1;" vector-effect="non-scaling-stroke"  transform=" translate(-497.28, -1004.16)" d="M 495.458 1006.61 L 499.616 1000.1 L 495.401 1008.22 L 494.946 1007.32 L 495.458 1006.61 Z" stroke-linecap="round" />
</g>
		<g transform="matrix(1 0 0 1 102.68 368.74)"  >
<path style="stroke: none; stroke-width: 1; stroke-dasharray: none; stroke-linecap: butt; stroke-dashoffset: 0; stroke-linejoin: miter; stroke-miterlimit: 4; fill: rgb(63,61,86); fill-rule: nonzero; opacity: 1;" vector-effect="non-scaling-stroke"  transform=" translate(-493.18, -1010.74)" d="M 495.003 1013.19 L 490.844 1006.68 L 495.059 1014.8 L 495.515 1013.9 L 495.003 1013.19 Z" stroke-linecap="round" />
</g>
		<g transform="matrix(1 0 0 1 -272.14 435.71)"  >
<path style="stroke: none; stroke-width: 1; stroke-dasharray: none; stroke-linecap: butt; stroke-dashoffset: 0; stroke-linejoin: miter; stroke-miterlimit: 4; fill: rgb(255,255,255); fill-rule: nonzero; opacity: 1;" vector-effect="non-scaling-stroke"  transform=" translate(-118.36, -1077.7)" d="M 132.476 1076.67 L 104.235 1076.67 L 104.235 1078.74 L 132.476 1078.74 L 132.476 1076.67 Z" stroke-linecap="round" />
</g>
		<g transform="matrix(1 0 0 1 -191.98 435.71)"  >
<path style="stroke: none; stroke-width: 1; stroke-dasharray: none; stroke-linecap: butt; stroke-dashoffset: 0; stroke-linejoin: miter; stroke-miterlimit: 4; fill: rgb(255,255,255); fill-rule: nonzero; opacity: 1;" vector-effect="non-scaling-stroke"  transform=" translate(-198.52, -1077.7)" d="M 212.643 1076.67 L 184.402 1076.67 L 184.402 1078.74 L 212.643 1078.74 L 212.643 1076.67 Z" stroke-linecap="round" />
</g>
		<g transform="matrix(1 0 0 1 -111.81 435.71)"  >
<path style="stroke: none; stroke-width: 1; stroke-dasharray: none; stroke-linecap: butt; stroke-dashoffset: 0; stroke-linejoin: miter; stroke-miterlimit: 4; fill: rgb(255,255,255); fill-rule: nonzero; opacity: 1;" vector-effect="non-scaling-stroke"  transform=" translate(-278.69, -1077.7)" d="M 292.81 1076.67 L 264.569 1076.67 L 264.569 1078.74 L 292.81 1078.74 L 292.81 1076.67 Z" stroke-linecap="round" />
</g>
		<g transform="matrix(1 0 0 1 -31.64 435.71)"  >
<path style="stroke: none; stroke-width: 1; stroke-dasharray: none; stroke-linecap: butt; stroke-dashoffset: 0; stroke-linejoin: miter; stroke-miterlimit: 4; fill: rgb(255,255,255); fill-rule: nonzero; opacity: 1;" vector-effect="non-scaling-stroke"  transform=" translate(-358.86, -1077.7)" d="M 372.977 1076.67 L 344.736 1076.67 L 344.736 1078.74 L 372.977 1078.74 L 372.977 1076.67 Z" stroke-linecap="round" />
</g>
		<g transform="matrix(1 0 0 1 48.52 435.71)"  >
<path style="stroke: none; stroke-width: 1; stroke-dasharray: none; stroke-linecap: butt; stroke-dashoffset: 0; stroke-linejoin: miter; stroke-miterlimit: 4; fill: rgb(255,255,255); fill-rule: nonzero; opacity: 1;" vector-effect="non-scaling-stroke"  transform=" translate(-439.02, -1077.7)" d="M 453.144 1076.67 L 424.903 1076.67 L 424.903 1078.74 L 453.144 1078.74 L 453.144 1076.67 Z" stroke-linecap="round" />
</g>
		<g transform="matrix(1 0 0 1 128.69 435.71)"  >
<path style="stroke: none; stroke-width: 1; stroke-dasharray: none; stroke-linecap: butt; stroke-dashoffset: 0; stroke-linejoin: miter; stroke-miterlimit: 4; fill: rgb(255,255,255); fill-rule: nonzero; opacity: 1;" vector-effect="non-scaling-stroke"  transform=" translate(-519.19, -1077.7)" d="M 533.311 1076.67 L 505.07 1076.67 L 505.07 1078.74 L 533.311 1078.74 L 533.311 1076.67 Z" stroke-linecap="round" />
</g>
		<g transform="matrix(1 0 0 1 208.86 435.71)"  >
<path style="stroke: none; stroke-width: 1; stroke-dasharray: none; stroke-linecap: butt; stroke-dashoffset: 0; stroke-linejoin: miter; stroke-miterlimit: 4; fill: rgb(255,255,255); fill-rule: nonzero; opacity: 1;" vector-effect="non-scaling-stroke"  transform=" translate(-599.36, -1077.7)" d="M 613.478 1076.67 L 585.237 1076.67 L 585.237 1078.74 L 613.478 1078.74 L 613.478 1076.67 Z" stroke-linecap="round" />
</g>
		<g transform="matrix(1 0 0 1 289.02 435.71)"  >
<path style="stroke: none; stroke-width: 1; stroke-dasharray: none; stroke-linecap: butt; stroke-dashoffset: 0; stroke-linejoin: miter; stroke-miterlimit: 4; fill: rgb(255,255,255); fill-rule: nonzero; opacity: 1;" vector-effect="non-scaling-stroke"  transform=" translate(-679.52, -1077.7)" d="M 693.645 1076.67 L 665.404 1076.67 L 665.404 1078.74 L 693.645 1078.74 L 693.645 1076.67 Z" stroke-linecap="round" />
</g>
		<g transform="matrix(1 0 0 1 -272.14 528.54)"  >
<path style="stroke: none; stroke-width: 1; stroke-dasharray: none; stroke-linecap: butt; stroke-dashoffset: 0; stroke-linejoin: miter; stroke-miterlimit: 4; fill: rgb(255,255,255); fill-rule: nonzero; opacity: 1;" vector-effect="non-scaling-stroke"  transform=" translate(-118.36, -1170.54)" d="M 132.476 1169.51 L 104.235 1169.51 L 104.235 1171.57 L 132.476 1171.57 L 132.476 1169.51 Z" stroke-linecap="round" />
</g>
		<g transform="matrix(1 0 0 1 -191.98 528.54)"  >
<path style="stroke: none; stroke-width: 1; stroke-dasharray: none; stroke-linecap: butt; stroke-dashoffset: 0; stroke-linejoin: miter; stroke-miterlimit: 4; fill: rgb(255,255,255); fill-rule: nonzero; opacity: 1;" vector-effect="non-scaling-stroke"  transform=" translate(-198.52, -1170.54)" d="M 212.643 1169.51 L 184.402 1169.51 L 184.402 1171.57 L 212.643 1171.57 L 212.643 1169.51 Z" stroke-linecap="round" />
</g>
		<g transform="matrix(1 0 0 1 -111.81 528.54)"  >
<path style="stroke: none; stroke-width: 1; stroke-dasharray: none; stroke-linecap: butt; stroke-dashoffset: 0; stroke-linejoin: miter; stroke-miterlimit: 4; fill: rgb(255,255,255); fill-rule: nonzero; opacity: 1;" vector-effect="non-scaling-stroke"  transform=" translate(-278.69, -1170.54)" d="M 292.81 1169.51 L 264.569 1169.51 L 264.569 1171.57 L 292.81 1171.57 L 292.81 1169.51 Z" stroke-linecap="round" />
</g>
		<g transform="matrix(1 0 0 1 -31.64 528.54)"  >
<path style="stroke: none; stroke-width: 1; stroke-dasharray: none; stroke-linecap: butt; stroke-dashoffset: 0; stroke-linejoin: miter; stroke-miterlimit: 4; fill: rgb(255,255,255); fill-rule: nonzero; opacity: 1;" vector-effect="non-scaling-stroke"  transform=" translate(-358.86, -1170.54)" d="M 372.977 1169.51 L 344.736 1169.51 L 344.736 1171.57 L 372.977 1171.57 L 372.977 1169.51 Z" stroke-linecap="round" />
</g>
		<g transform="matrix(1 0 0 1 48.52 528.54)"  >
<path style="stroke: none; stroke-width: 1; stroke-dasharray: none; stroke-linecap: butt; stroke-dashoffset: 0; stroke-linejoin: miter; stroke-miterlimit: 4; fill: rgb(255,255,255); fill-rule: nonzero; opacity: 1;" vector-effect="non-scaling-stroke"  transform=" translate(-439.02, -1170.54)" d="M 453.144 1169.51 L 424.903 1169.51 L 424.903 1171.57 L 453.144 1171.57 L 453.144 1169.51 Z" stroke-linecap="round" />
</g>
		<g transform="matrix(1 0 0 1 128.69 528.54)"  >
<path style="stroke: none; stroke-width: 1; stroke-dasharray: none; stroke-linecap: butt; stroke-dashoffset: 0; stroke-linejoin: miter; stroke-miterlimit: 4; fill: rgb(255,255,255); fill-rule: nonzero; opacity: 1;" vector-effect="non-scaling-stroke"  transform=" translate(-519.19, -1170.54)" d="M 533.311 1169.51 L 505.07 1169.51 L 505.07 1171.57 L 533.311 1171.57 L 533.311 1169.51 Z" stroke-linecap="round" />
</g>
		<g transform="matrix(1 0 0 1 208.86 528.54)"  >
<path style="stroke: none; stroke-width: 1; stroke-dasharray: none; stroke-linecap: butt; stroke-dashoffset: 0; stroke-linejoin: miter; stroke-miterlimit: 4; fill: rgb(255,255,255); fill-rule: nonzero; opacity: 1;" vector-effect="non-scaling-stroke"  transform=" translate(-599.36, -1170.54)" d="M 613.478 1169.51 L 585.237 1169.51 L 585.237 1171.57 L 613.478 1171.57 L 613.478 1169.51 Z" stroke-linecap="round" />
</g>
		<g transform="matrix(1 0 0 1 289.02 528.54)"  >
<path style="stroke: none; stroke-width: 1; stroke-dasharray: none; stroke-linecap: butt; stroke-dashoffset: 0; stroke-linejoin: miter; stroke-miterlimit: 4; fill: rgb(255,255,255); fill-rule: nonzero; opacity: 1;" vector-effect="non-scaling-stroke"  transform=" translate(-679.52, -1170.54)" d="M 693.645 1169.51 L 665.404 1169.51 L 665.404 1171.57 L 693.645 1171.57 L 693.645 1169.51 Z" stroke-linecap="round" />
</g>
		<g transform="matrix(1 0 0 1 -272.14 621.37)"  >
<path style="stroke: none; stroke-width: 1; stroke-dasharray: none; stroke-linecap: butt; stroke-dashoffset: 0; stroke-linejoin: miter; stroke-miterlimit: 4; fill: rgb(255,255,255); fill-rule: nonzero; opacity: 1;" vector-effect="non-scaling-stroke"  transform=" translate(-118.36, -1263.37)" d="M 132.476 1262.34 L 104.235 1262.34 L 104.235 1264.4 L 132.476 1264.4 L 132.476 1262.34 Z" stroke-linecap="round" />
</g>
		<g transform="matrix(1 0 0 1 -191.98 621.37)"  >
<path style="stroke: none; stroke-width: 1; stroke-dasharray: none; stroke-linecap: butt; stroke-dashoffset: 0; stroke-linejoin: miter; stroke-miterlimit: 4; fill: rgb(255,255,255); fill-rule: nonzero; opacity: 1;" vector-effect="non-scaling-stroke"  transform=" translate(-198.52, -1263.37)" d="M 212.643 1262.34 L 184.402 1262.34 L 184.402 1264.4 L 212.643 1264.4 L 212.643 1262.34 Z" stroke-linecap="round" />
</g>
		<g transform="matrix(1 0 0 1 -111.81 621.37)"  >
<path style="stroke: none; stroke-width: 1; stroke-dasharray: none; stroke-linecap: butt; stroke-dashoffset: 0; stroke-linejoin: miter; stroke-miterlimit: 4; fill: rgb(255,255,255); fill-rule: nonzero; opacity: 1;" vector-effect="non-scaling-stroke"  transform=" translate(-278.69, -1263.37)" d="M 292.81 1262.34 L 264.569 1262.34 L 264.569 1264.4 L 292.81 1264.4 L 292.81 1262.34 Z" stroke-linecap="round" />
</g>
		<g transform="matrix(1 0 0 1 -31.64 621.37)"  >
<path style="stroke: none; stroke-width: 1; stroke-dasharray: none; stroke-linecap: butt; stroke-dashoffset: 0; stroke-linejoin: miter; stroke-miterlimit: 4; fill: rgb(255,255,255); fill-rule: nonzero; opacity: 1;" vector-effect="non-scaling-stroke"  transform=" translate(-358.86, -1263.37)" d="M 372.977 1262.34 L 344.736 1262.34 L 344.736 1264.4 L 372.977 1264.4 L 372.977 1262.34 Z" stroke-linecap="round" />
</g>
		<g transform="matrix(1 0 0 1 48.52 621.37)"  >
<path style="stroke: none; stroke-width: 1; stroke-dasharray: none; stroke-linecap: butt; stroke-dashoffset: 0; stroke-linejoin: miter; stroke-miterlimit: 4; fill: rgb(255,255,255); fill-rule: nonzero; opacity: 1;" vector-effect="non-scaling-stroke"  transform=" translate(-439.02, -1263.37)" d="M 453.144 1262.34 L 424.903 1262.34 L 424.903 1264.4 L 453.144 1264.4 L 453.144 1262.34 Z" stroke-linecap="round" />
</g>
		<g transform="matrix(1 0 0 1 128.69 621.37)"  >
<path style="stroke: none; stroke-width: 1; stroke-dasharray: none; stroke-linecap: butt; stroke-dashoffset: 0; stroke-linejoin: miter; stroke-miterlimit: 4; fill: rgb(255,255,255); fill-rule: nonzero; opacity: 1;" vector-effect="non-scaling-stroke"  transform=" translate(-519.19, -1263.37)" d="M 533.311 1262.34 L 505.07 1262.34 L 505.07 1264.4 L 533.311 1264.4 L 533.311 1262.34 Z" stroke-linecap="round" />
</g>
		<g transform="matrix(1 0 0 1 208.86 621.37)"  >
<path style="stroke: none; stroke-width: 1; stroke-dasharray: none; stroke-linecap: butt; stroke-dashoffset: 0; stroke-linejoin: miter; stroke-miterlimit: 4; fill: rgb(255,255,255); fill-rule: nonzero; opacity: 1;" vector-effect="non-scaling-stroke"  transform=" translate(-599.36, -1263.37)" d="M 613.478 1262.34 L 585.237 1262.34 L 585.237 1264.4 L 613.478 1264.4 L 613.478 1262.34 Z" stroke-linecap="round" />
</g>
		<g transform="matrix(1 0 0 1 289.02 621.37)"  >
<path style="stroke: none; stroke-width: 1; stroke-dasharray: none; stroke-linecap: butt; stroke-dashoffset: 0; stroke-linejoin: miter; stroke-miterlimit: 4; fill: rgb(255,255,255); fill-rule: nonzero; opacity: 1;" vector-effect="non-scaling-stroke"  transform=" translate(-679.52, -1263.37)" d="M 693.645 1262.34 L 665.404 1262.34 L 665.404 1264.4 L 693.645 1264.4 L 693.645 1262.34 Z" stroke-linecap="round" />
</g>
		<g transform="matrix(1 0 0 1 219.77 552.7)"  >
<path style="stroke: none; stroke-width: 1; stroke-dasharray: none; stroke-linecap: butt; stroke-dashoffset: 0; stroke-linejoin: miter; stroke-miterlimit: 4; fill: rgb(255,255,255); fill-rule: nonzero; opacity: 1;" vector-effect="non-scaling-stroke"  transform=" translate(-610.27, -1194.7)" d="M 584.934 1203.32 L 623.077 1203.34 L 627.733 1203.34 L 635.593 1203.34 L 635.593 1202.69 L 635.599 1194.87 L 635.605 1186.08 L 630.375 1186.08 L 625.719 1186.07 L 617.471 1186.06 L 612.815 1186.06 L 603.293 1186.06 L 584.934 1203.32 Z" stroke-linecap="round" />
</g>
		<g transform="matrix(1 0 0 1 261.38 552.72)"  >
<path style="stroke: none; stroke-width: 1; stroke-dasharray: none; stroke-linecap: butt; stroke-dashoffset: 0; stroke-linejoin: miter; stroke-miterlimit: 4; fill: rgb(255,255,255); fill-rule: nonzero; opacity: 1;" vector-effect="non-scaling-stroke"  transform=" translate(-651.88, -1194.72)" d="M 641.8 1203.35 L 661.958 1203.36 L 661.963 1198.88 L 661.963 1191.06 L 661.969 1186.1 L 659.017 1186.1 L 654.361 1186.09 L 641.806 1186.08 L 641.8 1203.35 Z" stroke-linecap="round" />
</g>
		<g transform="matrix(1 0 0 1 240.16 552.38)"  >
<path style="stroke: none; stroke-width: 1; stroke-dasharray: none; stroke-linecap: butt; stroke-dashoffset: 0; stroke-linejoin: miter; stroke-miterlimit: 4; fill: rgb(242,242,242); fill-rule: nonzero; opacity: 1;" vector-effect="non-scaling-stroke"  transform=" translate(-630.66, -1194.38)" d="M 625.719 1186.07 L 635.593 1202.69 L 635.599 1194.87 L 630.375 1186.08 L 625.719 1186.07 Z" stroke-linecap="round" />
</g>
		<g transform="matrix(1 0 0 1 267.66 550.49)"  >
<path style="stroke: none; stroke-width: 1; stroke-dasharray: none; stroke-linecap: butt; stroke-dashoffset: 0; stroke-linejoin: miter; stroke-miterlimit: 4; fill: rgb(242,242,242); fill-rule: nonzero; opacity: 1;" vector-effect="non-scaling-stroke"  transform=" translate(-658.16, -1192.49)" d="M 654.361 1186.09 L 661.963 1198.88 L 661.963 1191.05 L 659.018 1186.1 L 654.361 1186.09 Z" stroke-linecap="round" />
</g>
		<g transform="matrix(1 0 0 1 229.77 552.7)"  >
<path style="stroke: none; stroke-width: 1; stroke-dasharray: none; stroke-linecap: butt; stroke-dashoffset: 0; stroke-linejoin: miter; stroke-miterlimit: 4; fill: rgb(242,242,242); fill-rule: nonzero; opacity: 1;" vector-effect="non-scaling-stroke"  transform=" translate(-620.27, -1194.7)" d="M 612.815 1186.06 L 623.077 1203.34 L 627.733 1203.34 L 617.471 1186.06 L 612.815 1186.06 Z" stroke-linecap="round" />
</g>
		<g transform="matrix(1 0 0 1 148.99 81.11)"  >
<path style="stroke: none; stroke-width: 1; stroke-dasharray: none; stroke-linecap: butt; stroke-dashoffset: 0; stroke-linejoin: miter; stroke-miterlimit: 4; fill: rgb(230,230,230); fill-rule: nonzero; opacity: 1;" vector-effect="non-scaling-stroke"  transform=" translate(-539.49, -723.11)" d="M 539.476 721.871 C 542.443 721.868 545.362 722.722 547.956 724.352 L 531.018 724.352 C 533.605 722.722 536.516 721.868 539.476 721.871 Z" stroke-linecap="round" />
</g>
		<g transform="matrix(1 0 0 1 116.12 79.87)"  >
<path style="stroke: none; stroke-width: 1; stroke-dasharray: none; stroke-linecap: butt; stroke-dashoffset: 0; stroke-linejoin: miter; stroke-miterlimit: 4; fill: rgb(230,230,230); fill-rule: nonzero; opacity: 1;" vector-effect="non-scaling-stroke"  transform=" translate(-506.62, -721.87)" d="M 506.609 719.39 C 511.565 719.383 516.401 721.117 520.45 724.352 L 492.787 724.352 C 496.831 721.121 501.66 719.387 506.609 719.39 Z" stroke-linecap="round" />
</g>
		<g transform="matrix(1 0 0 1 -245.21 -116.82)"  >
<path style="stroke: none; stroke-width: 1; stroke-dasharray: none; stroke-linecap: butt; stroke-dashoffset: 0; stroke-linejoin: miter; stroke-miterlimit: 4; fill: rgb(71,85,105); fill-opacity: 0.31; fill-rule: nonzero; opacity: 1;" vector-effect="non-scaling-stroke"  transform=" translate(-145.29, -525.18)" d="M 60.0508 530.987 C 60.6519 518.953 65.008 507.552 72.3426 498.817 C 79.6772 490.081 89.5135 484.579 100.098 483.291 C 110.682 482.003 121.326 485.014 130.132 491.785 C 138.939 498.557 145.335 508.65 148.18 520.264 C 148.724 520.242 149.268 520.217 149.817 520.217 C 159.521 520.219 168.964 523.779 176.733 530.364 C 184.502 536.949 190.179 546.204 192.915 556.747 C 199.345 553.547 206.531 552.853 213.347 554.773 C 220.163 556.693 226.225 561.118 230.582 567.355 L 90.4685 567.355 C 86.3809 567.368 82.3329 566.447 78.5671 564.648 C 74.8012 562.848 71.3949 560.206 68.5519 556.88 C 65.709 553.555 63.488 549.614 62.0218 545.294 C 60.5556 540.973 59.8744 536.363 60.019 531.737 C 60.028 531.488 60.0386 531.237 60.0508 530.987 Z" stroke-linecap="round" />
</g>
		<g transform="matrix(1 0 0 1 159.19 118.24)"  >
<path style="stroke: none; stroke-width: 1; stroke-dasharray: none; stroke-linecap: butt; stroke-dashoffset: 0; stroke-linejoin: miter; stroke-miterlimit: 4; fill: rgb(230,230,230); fill-rule: nonzero; opacity: 1;" vector-effect="non-scaling-stroke"  transform=" translate(-549.69, -760.24)" d="M 549.7 759.004 C 546.733 759.001 543.815 759.855 541.22 761.485 L 558.158 761.485 C 555.571 759.856 552.66 759.002 549.7 759.004 Z" stroke-linecap="round" />
</g>
		<g transform="matrix(1 0 0 1 192.06 117)"  >
<path style="stroke: none; stroke-width: 1; stroke-dasharray: none; stroke-linecap: butt; stroke-dashoffset: 0; stroke-linejoin: miter; stroke-miterlimit: 4; fill: rgb(230,230,230); fill-rule: nonzero; opacity: 1;" vector-effect="non-scaling-stroke"  transform=" translate(-582.56, -759)" d="M 582.567 756.523 C 577.611 756.517 572.775 758.25 568.726 761.485 L 596.39 761.485 C 592.346 758.254 587.517 756.521 582.567 756.523 Z" stroke-linecap="round" />
</g>
		<g transform="matrix(1 0 0 1 251.79 -132.82)"  >
<path style="stroke: none; stroke-width: 1; stroke-dasharray: none; stroke-linecap: butt; stroke-dashoffset: 0; stroke-linejoin: miter; stroke-miterlimit: 4; fill: rgb(71,85,105); fill-opacity: 0.24; fill-rule: nonzero; opacity: 1;" vector-effect="non-scaling-stroke"  transform=" translate(-642.29, -509.18)" d="M 727.531 514.987 C 726.93 502.953 722.574 491.552 715.24 482.817 C 707.905 474.081 698.069 468.579 687.484 467.291 C 676.9 466.003 666.256 469.014 657.45 475.785 C 648.644 482.557 642.248 492.65 639.402 504.264 C 638.858 504.242 638.314 504.217 637.765 504.217 C 628.061 504.219 618.618 507.779 610.849 514.364 C 603.08 520.949 597.403 530.204 594.667 540.747 C 588.237 537.547 581.051 536.853 574.235 538.773 C 567.419 540.693 561.357 545.118 557 551.355 L 697.114 551.355 C 701.201 551.368 705.249 550.447 709.015 548.648 C 712.781 546.848 716.187 544.206 719.03 540.88 C 721.873 537.555 724.094 533.614 725.56 529.294 C 727.027 524.973 727.708 520.363 727.563 515.737 C 727.554 515.488 727.544 515.237 727.531 514.987 Z" stroke-linecap="round" />
</g>
</g>
</g>
</svg>